<?xml version="1.0" encoding="UTF-8"?>
<svg width="30px" height="250px" viewBox="0 0 30 250" version="1.1" xmlns="http://www.w3.org/2000/svg" xmlns:xlink="http://www.w3.org/1999/xlink">
    <title>datafile_icons_sprite</title>
    <g id="datafile_icons_sprite" stroke="none" stroke-width="1" fill="none" fill-rule="evenodd">
        <g id="file-type/file_xlsx" transform="translate(0.000000, 210.000000)">
            <g id="page-parts">
                <path d="M17.5,0 L17.5,13.3333333 L30,13.3333333 L30,37 C30,38.6568542 28.6568542,40 27,40 L3,40 C1.34314575,40 2.02906125e-16,38.6568542 0,37 L0,3 C-2.02906125e-16,1.34314575 1.34314575,3.04359188e-16 3,0 L17.5,0 Z" id="page" fill="#0081CB"></path>
                <polygon id="fold" fill="#C1DCF5" points="17.5 0 30 13.3333333 17.5 13.3333333"></polygon>
            </g>
            <g id="XLSX" transform="translate(3.232910, 27.000000)" fill="#EEF4F9" fill-rule="nonzero">
                <path d="M6.01318359,7.13671875 C6.08349609,7.2734375 6.12939453,7.3828125 6.15087891,7.46484375 C6.17236328,7.546875 6.15966797,7.609375 6.11279297,7.65234375 C6.06591797,7.6953125 5.98095703,7.72265625 5.85791016,7.734375 C5.73486328,7.74609375 5.56396484,7.75195312 5.34521484,7.75195312 C5.16162109,7.75195312 5.01708984,7.74804688 4.91162109,7.74023438 C4.80615234,7.73242188 4.72314453,7.71972656 4.66259766,7.70214844 C4.60205078,7.68457031 4.55810547,7.66015625 4.53076172,7.62890625 C4.50341797,7.59765625 4.47998047,7.55859375 4.46044922,7.51171875 L3.03662109,4.77539062 L1.61865234,7.51171875 C1.59521484,7.55859375 1.56982422,7.59765625 1.54248047,7.62890625 C1.51513672,7.66015625 1.47119141,7.68457031 1.41064453,7.70214844 C1.35009766,7.71972656 1.26611328,7.73242188 1.15869141,7.74023438 C1.05126953,7.74804688 0.909667969,7.75195312 0.733886719,7.75195312 C0.530761719,7.75195312 0.373535156,7.74609375 0.262207031,7.734375 C0.150878906,7.72265625 0.0756835938,7.6953125 0.0366210938,7.65234375 C-0.00244140625,7.609375 -0.0102539062,7.546875 0.0131835937,7.46484375 C0.0366210938,7.3828125 0.0854492188,7.2734375 0.159667969,7.13671875 L1.97607422,3.82617188 L0.288574219,0.71484375 C0.218261719,0.57421875 0.170410156,0.461914062 0.145019531,0.377929688 C0.119628906,0.293945312 0.129394531,0.231445312 0.174316406,0.190429688 C0.219238281,0.149414062 0.302246094,0.124023438 0.423339844,0.114257812 C0.544433594,0.104492188 0.716308594,0.099609375 0.938964844,0.099609375 C1.12255859,0.099609375 1.26806641,0.103515625 1.37548828,0.111328125 C1.48291016,0.119140625 1.56787109,0.131835938 1.63037109,0.149414062 C1.69287109,0.166992188 1.73681641,0.19140625 1.76220703,0.22265625 C1.78759766,0.25390625 1.81201172,0.29296875 1.83544922,0.33984375 L3.16552734,2.84765625 L4.46044922,0.33984375 C4.48388672,0.29296875 4.50830078,0.25390625 4.53369141,0.22265625 C4.55908203,0.19140625 4.60009766,0.166992188 4.65673828,0.149414062 C4.71337891,0.131835938 4.79150391,0.119140625 4.89111328,0.111328125 C4.99072266,0.103515625 5.12841797,0.099609375 5.30419922,0.099609375 C5.49951172,0.099609375 5.65380859,0.104492188 5.76708984,0.114257812 C5.88037109,0.124023438 5.95849609,0.150390625 6.00146484,0.193359375 C6.04443359,0.236328125 6.05517578,0.298828125 6.03369141,0.380859375 C6.01220703,0.462890625 5.96826172,0.57421875 5.90185547,0.71484375 L4.21435547,3.80859375 L6.01318359,7.13671875 Z" id="Path"></path>
                <path d="M11.3862305,7.07226562 C11.3862305,7.18945312 11.3813477,7.28808594 11.371582,7.36816406 C11.3618164,7.44824219 11.347168,7.51464844 11.3276367,7.56738281 C11.3081055,7.62011719 11.2836914,7.65820312 11.2543945,7.68164062 C11.2250977,7.70507812 11.190918,7.71679688 11.1518555,7.71679688 L7.67724609,7.71679688 C7.54833984,7.71679688 7.43994141,7.67871094 7.35205078,7.60253906 C7.26416016,7.52636719 7.22021484,7.40234375 7.22021484,7.23046875 L7.22021484,0.345703125 C7.22021484,0.306640625 7.23291016,0.271484375 7.25830078,0.240234375 C7.28369141,0.208984375 7.32568359,0.18359375 7.38427734,0.1640625 C7.44287109,0.14453125 7.52197266,0.12890625 7.62158203,0.1171875 C7.72119141,0.10546875 7.84521484,0.099609375 7.99365234,0.099609375 C8.14599609,0.099609375 8.27099609,0.10546875 8.36865234,0.1171875 C8.46630859,0.12890625 8.54443359,0.14453125 8.60302734,0.1640625 C8.66162109,0.18359375 8.70361328,0.208984375 8.72900391,0.240234375 C8.75439453,0.271484375 8.76708984,0.306640625 8.76708984,0.345703125 L8.76708984,6.4453125 L11.1518555,6.4453125 C11.190918,6.4453125 11.2250977,6.45605469 11.2543945,6.47753906 C11.2836914,6.49902344 11.3081055,6.53417969 11.3276367,6.58300781 C11.347168,6.63183594 11.3618164,6.69628906 11.371582,6.77636719 C11.3813477,6.85644531 11.3862305,6.95507812 11.3862305,7.07226562 Z" id="Path"></path>
                <path d="M16.7885742,5.44335938 C16.7885742,5.84179688 16.7143555,6.19140625 16.565918,6.4921875 C16.4174805,6.79296875 16.2163086,7.04394531 15.9624023,7.24511719 C15.7084961,7.44628906 15.4116211,7.59765625 15.0717773,7.69921875 C14.7319336,7.80078125 14.3686523,7.8515625 13.9819336,7.8515625 C13.7202148,7.8515625 13.4770508,7.83007812 13.2524414,7.78710938 C13.027832,7.74414062 12.8295898,7.69238281 12.6577148,7.63183594 C12.4858398,7.57128906 12.3422852,7.5078125 12.2270508,7.44140625 C12.1118164,7.375 12.0288086,7.31640625 11.9780273,7.265625 C11.9272461,7.21484375 11.8911133,7.14160156 11.8696289,7.04589844 C11.8481445,6.95019531 11.8374023,6.8125 11.8374023,6.6328125 C11.8374023,6.51171875 11.8413086,6.41015625 11.8491211,6.328125 C11.8569336,6.24609375 11.8696289,6.1796875 11.887207,6.12890625 C11.9047852,6.078125 11.9282227,6.04199219 11.9575195,6.02050781 C11.9868164,5.99902344 12.0209961,5.98828125 12.0600586,5.98828125 C12.1147461,5.98828125 12.1918945,6.02050781 12.2915039,6.08496094 C12.3911133,6.14941406 12.519043,6.22070312 12.675293,6.29882812 C12.831543,6.37695312 13.0180664,6.44824219 13.2348633,6.51269531 C13.4516602,6.57714844 13.7026367,6.609375 13.987793,6.609375 C14.175293,6.609375 14.3432617,6.58691406 14.4916992,6.54199219 C14.6401367,6.49707031 14.7661133,6.43359375 14.8696289,6.3515625 C14.9731445,6.26953125 15.0522461,6.16796875 15.1069336,6.046875 C15.1616211,5.92578125 15.1889648,5.79101562 15.1889648,5.64257812 C15.1889648,5.47070312 15.1420898,5.32324219 15.0483398,5.20019531 C14.9545898,5.07714844 14.8325195,4.96777344 14.6821289,4.87207031 C14.5317383,4.77636719 14.3608398,4.68652344 14.1694336,4.60253906 C13.9780273,4.51855469 13.7807617,4.4296875 13.5776367,4.3359375 C13.3745117,4.2421875 13.1772461,4.13574219 12.9858398,4.01660156 C12.7944336,3.89746094 12.6235352,3.75488281 12.4731445,3.58886719 C12.3227539,3.42285156 12.2006836,3.2265625 12.1069336,3 C12.0131836,2.7734375 11.9663086,2.50195312 11.9663086,2.18554688 C11.9663086,1.82226562 12.0336914,1.50292969 12.168457,1.22753906 C12.3032227,0.952148438 12.4848633,0.723632812 12.7133789,0.541992188 C12.9418945,0.360351562 13.2114258,0.224609375 13.5219727,0.134765625 C13.8325195,0.044921875 14.1616211,0 14.5092773,0 C14.6889648,0 14.8686523,0.013671875 15.0483398,0.041015625 C15.2280273,0.068359375 15.3959961,0.10546875 15.5522461,0.15234375 C15.7084961,0.19921875 15.847168,0.251953125 15.9682617,0.310546875 C16.0893555,0.369140625 16.1694336,0.41796875 16.2084961,0.45703125 C16.2475586,0.49609375 16.2739258,0.529296875 16.2875977,0.556640625 C16.3012695,0.583984375 16.3129883,0.620117188 16.3227539,0.665039062 C16.3325195,0.709960938 16.3393555,0.766601562 16.3432617,0.834960938 C16.347168,0.903320312 16.3491211,0.98828125 16.3491211,1.08984375 C16.3491211,1.203125 16.3461914,1.29882812 16.340332,1.37695312 C16.3344727,1.45507812 16.324707,1.51953125 16.3110352,1.5703125 C16.2973633,1.62109375 16.277832,1.65820312 16.2524414,1.68164062 C16.2270508,1.70507812 16.1928711,1.71679688 16.1499023,1.71679688 C16.1069336,1.71679688 16.0385742,1.68945312 15.9448242,1.63476562 C15.8510742,1.58007812 15.7358398,1.52050781 15.5991211,1.45605469 C15.4624023,1.39160156 15.3041992,1.33300781 15.1245117,1.28027344 C14.9448242,1.22753906 14.7475586,1.20117188 14.5327148,1.20117188 C14.3647461,1.20117188 14.2182617,1.22167969 14.0932617,1.26269531 C13.9682617,1.30371094 13.8637695,1.36035156 13.7797852,1.43261719 C13.6958008,1.50488281 13.6333008,1.59179688 13.5922852,1.69335938 C13.5512695,1.79492188 13.5307617,1.90234375 13.5307617,2.015625 C13.5307617,2.18359375 13.5766602,2.32910156 13.668457,2.45214844 C13.7602539,2.57519531 13.8833008,2.68457031 14.0375977,2.78027344 C14.1918945,2.87597656 14.3666992,2.96582031 14.5620117,3.04980469 C14.7573242,3.13378906 14.956543,3.22265625 15.159668,3.31640625 C15.362793,3.41015625 15.5620117,3.51660156 15.7573242,3.63574219 C15.9526367,3.75488281 16.1264648,3.89746094 16.2788086,4.06347656 C16.4311523,4.22949219 16.5541992,4.42480469 16.6479492,4.64941406 C16.7416992,4.87402344 16.7885742,5.13867188 16.7885742,5.44335938 Z" id="Path"></path>
                <path d="M23.3686523,7.13671875 C23.4389648,7.2734375 23.4848633,7.3828125 23.5063477,7.46484375 C23.527832,7.546875 23.5151367,7.609375 23.4682617,7.65234375 C23.4213867,7.6953125 23.3364258,7.72265625 23.2133789,7.734375 C23.090332,7.74609375 22.9194336,7.75195312 22.7006836,7.75195312 C22.5170898,7.75195312 22.3725586,7.74804688 22.2670898,7.74023438 C22.1616211,7.73242188 22.0786133,7.71972656 22.0180664,7.70214844 C21.9575195,7.68457031 21.9135742,7.66015625 21.8862305,7.62890625 C21.8588867,7.59765625 21.8354492,7.55859375 21.815918,7.51171875 L20.3920898,4.77539062 L18.9741211,7.51171875 C18.9506836,7.55859375 18.925293,7.59765625 18.8979492,7.62890625 C18.8706055,7.66015625 18.8266602,7.68457031 18.7661133,7.70214844 C18.7055664,7.71972656 18.621582,7.73242188 18.5141602,7.74023438 C18.4067383,7.74804688 18.2651367,7.75195312 18.0893555,7.75195312 C17.8862305,7.75195312 17.7290039,7.74609375 17.6176758,7.734375 C17.5063477,7.72265625 17.4311523,7.6953125 17.3920898,7.65234375 C17.3530273,7.609375 17.3452148,7.546875 17.3686523,7.46484375 C17.3920898,7.3828125 17.440918,7.2734375 17.5151367,7.13671875 L19.331543,3.82617188 L17.644043,0.71484375 C17.5737305,0.57421875 17.5258789,0.461914062 17.5004883,0.377929688 C17.4750977,0.293945312 17.4848633,0.231445312 17.5297852,0.190429688 C17.574707,0.149414062 17.6577148,0.124023438 17.7788086,0.114257812 C17.8999023,0.104492188 18.0717773,0.099609375 18.2944336,0.099609375 C18.4780273,0.099609375 18.6235352,0.103515625 18.730957,0.111328125 C18.8383789,0.119140625 18.9233398,0.131835938 18.9858398,0.149414062 C19.0483398,0.166992188 19.0922852,0.19140625 19.1176758,0.22265625 C19.1430664,0.25390625 19.1674805,0.29296875 19.190918,0.33984375 L20.5209961,2.84765625 L21.815918,0.33984375 C21.8393555,0.29296875 21.8637695,0.25390625 21.8891602,0.22265625 C21.9145508,0.19140625 21.9555664,0.166992188 22.012207,0.149414062 C22.0688477,0.131835938 22.1469727,0.119140625 22.246582,0.111328125 C22.3461914,0.103515625 22.4838867,0.099609375 22.659668,0.099609375 C22.8549805,0.099609375 23.0092773,0.104492188 23.1225586,0.114257812 C23.2358398,0.124023438 23.3139648,0.150390625 23.3569336,0.193359375 C23.3999023,0.236328125 23.4106445,0.298828125 23.3891602,0.380859375 C23.3676758,0.462890625 23.3237305,0.57421875 23.2573242,0.71484375 L21.5698242,3.80859375 L23.3686523,7.13671875 Z" id="Path"></path>
            </g>
        </g>
        <g id="file-type/file_csv" transform="translate(0.000000, 140.000000)">
            <g id="Group">
                <path d="M17.5,0 L17.5,13.3333333 L30,13.3333333 L30,37 C30,38.6568542 28.6568542,40 27,40 L3,40 C1.34314575,40 2.02906125e-16,38.6568542 0,37 L0,3 C-2.02906125e-16,1.34314575 1.34314575,3.04359188e-16 3,0 L17.5,0 Z" id="page" fill="#0081CB"></path>
                <polygon id="fold" fill="#C1DCF5" points="17.5 0 30 13.3333333 17.5 13.3333333"></polygon>
            </g>
            <g id="CSV" transform="translate(5.903320, 27.000000)" fill="#EEF4F9" fill-rule="nonzero">
                <path d="M5.60742188,6.56835938 C5.60742188,6.66601562 5.60449219,6.74902344 5.59863281,6.81738281 C5.59277344,6.88574219 5.58398438,6.94433594 5.57226562,6.99316406 C5.56054688,7.04199219 5.54492188,7.08398438 5.52539062,7.11914062 C5.50585938,7.15429688 5.47460938,7.19433594 5.43164062,7.23925781 C5.38867188,7.28417969 5.30566406,7.34179688 5.18261719,7.41210938 C5.05957031,7.48242188 4.90917969,7.54980469 4.73144531,7.61425781 C4.55371094,7.67871094 4.35058594,7.73242188 4.12207031,7.77539062 C3.89355469,7.81835938 3.64648438,7.83984375 3.38085938,7.83984375 C2.86132812,7.83984375 2.39257812,7.75976562 1.97460938,7.59960938 C1.55664062,7.43945312 1.20117188,7.20019531 0.908203125,6.88183594 C0.615234375,6.56347656 0.390625,6.16601562 0.234375,5.68945312 C0.078125,5.21289062 0,4.65820312 0,4.02539062 C0,3.38085938 0.0859375,2.80859375 0.2578125,2.30859375 C0.4296875,1.80859375 0.669921875,1.38867188 0.978515625,1.04882812 C1.28710938,0.708984375 1.65722656,0.451171875 2.08886719,0.275390625 C2.52050781,0.099609375 2.99609375,0.01171875 3.515625,0.01171875 C3.7265625,0.01171875 3.9296875,0.029296875 4.125,0.064453125 C4.3203125,0.099609375 4.50097656,0.145507812 4.66699219,0.202148438 C4.83300781,0.258789062 4.98242188,0.32421875 5.11523438,0.3984375 C5.24804688,0.47265625 5.34082031,0.536132812 5.39355469,0.588867188 C5.44628906,0.641601562 5.48242188,0.685546875 5.50195312,0.720703125 C5.52148438,0.755859375 5.53710938,0.80078125 5.54882812,0.85546875 C5.56054688,0.91015625 5.56933594,0.974609375 5.57519531,1.04882812 C5.58105469,1.12304688 5.58398438,1.21484375 5.58398438,1.32421875 C5.58398438,1.44140625 5.58007812,1.54101562 5.57226562,1.62304688 C5.56445312,1.70507812 5.55078125,1.77148438 5.53125,1.82226562 C5.51171875,1.87304688 5.48828125,1.91015625 5.4609375,1.93359375 C5.43359375,1.95703125 5.40234375,1.96875 5.3671875,1.96875 C5.30859375,1.96875 5.234375,1.93457031 5.14453125,1.86621094 C5.0546875,1.79785156 4.93847656,1.72167969 4.79589844,1.63769531 C4.65332031,1.55371094 4.48339844,1.47753906 4.28613281,1.40917969 C4.08886719,1.34082031 3.85351563,1.30664062 3.58007812,1.30664062 C3.27929688,1.30664062 3.01074219,1.36816406 2.77441406,1.49121094 C2.53808594,1.61425781 2.33691406,1.79003906 2.17089844,2.01855469 C2.00488281,2.24707031 1.87890625,2.5234375 1.79296875,2.84765625 C1.70703125,3.171875 1.6640625,3.53710938 1.6640625,3.94335938 C1.6640625,4.38867188 1.70996094,4.77441406 1.80175781,5.10058594 C1.89355469,5.42675781 2.02441406,5.6953125 2.19433594,5.90625 C2.36425781,6.1171875 2.56933594,6.27441406 2.80957031,6.37792969 C3.04980469,6.48144531 3.3203125,6.53320312 3.62109375,6.53320312 C3.89453125,6.53320312 4.13085938,6.50097656 4.33007812,6.43652344 C4.52929688,6.37207031 4.70019531,6.30078125 4.84277344,6.22265625 C4.98535156,6.14453125 5.10253906,6.07421875 5.19433594,6.01171875 C5.28613281,5.94921875 5.35742188,5.91796875 5.40820312,5.91796875 C5.44726562,5.91796875 5.47851562,5.92578125 5.50195312,5.94140625 C5.52539062,5.95703125 5.54492188,5.98828125 5.56054688,6.03515625 C5.57617188,6.08203125 5.58789062,6.14746094 5.59570312,6.23144531 C5.60351562,6.31542969 5.60742188,6.42773438 5.60742188,6.56835938 Z" id="Path"></path>
                <path d="M11.2089844,5.44335938 C11.2089844,5.84179688 11.1347656,6.19140625 10.9863281,6.4921875 C10.8378906,6.79296875 10.6367188,7.04394531 10.3828125,7.24511719 C10.1289062,7.44628906 9.83203125,7.59765625 9.4921875,7.69921875 C9.15234375,7.80078125 8.7890625,7.8515625 8.40234375,7.8515625 C8.140625,7.8515625 7.89746094,7.83007812 7.67285156,7.78710938 C7.44824219,7.74414062 7.25,7.69238281 7.078125,7.63183594 C6.90625,7.57128906 6.76269531,7.5078125 6.64746094,7.44140625 C6.53222656,7.375 6.44921875,7.31640625 6.3984375,7.265625 C6.34765625,7.21484375 6.31152344,7.14160156 6.29003906,7.04589844 C6.26855469,6.95019531 6.2578125,6.8125 6.2578125,6.6328125 C6.2578125,6.51171875 6.26171875,6.41015625 6.26953125,6.328125 C6.27734375,6.24609375 6.29003906,6.1796875 6.30761719,6.12890625 C6.32519531,6.078125 6.34863281,6.04199219 6.37792969,6.02050781 C6.40722656,5.99902344 6.44140625,5.98828125 6.48046875,5.98828125 C6.53515625,5.98828125 6.61230469,6.02050781 6.71191406,6.08496094 C6.81152344,6.14941406 6.93945312,6.22070312 7.09570312,6.29882812 C7.25195312,6.37695312 7.43847656,6.44824219 7.65527344,6.51269531 C7.87207031,6.57714844 8.12304688,6.609375 8.40820312,6.609375 C8.59570312,6.609375 8.76367188,6.58691406 8.91210938,6.54199219 C9.06054688,6.49707031 9.18652344,6.43359375 9.29003906,6.3515625 C9.39355469,6.26953125 9.47265625,6.16796875 9.52734375,6.046875 C9.58203125,5.92578125 9.609375,5.79101562 9.609375,5.64257812 C9.609375,5.47070312 9.5625,5.32324219 9.46875,5.20019531 C9.375,5.07714844 9.25292969,4.96777344 9.10253906,4.87207031 C8.95214844,4.77636719 8.78125,4.68652344 8.58984375,4.60253906 C8.3984375,4.51855469 8.20117188,4.4296875 7.99804688,4.3359375 C7.79492188,4.2421875 7.59765625,4.13574219 7.40625,4.01660156 C7.21484375,3.89746094 7.04394531,3.75488281 6.89355469,3.58886719 C6.74316406,3.42285156 6.62109375,3.2265625 6.52734375,3 C6.43359375,2.7734375 6.38671875,2.50195312 6.38671875,2.18554688 C6.38671875,1.82226562 6.45410156,1.50292969 6.58886719,1.22753906 C6.72363281,0.952148438 6.90527344,0.723632812 7.13378906,0.541992188 C7.36230469,0.360351562 7.63183594,0.224609375 7.94238281,0.134765625 C8.25292969,0.044921875 8.58203125,0 8.9296875,0 C9.109375,0 9.2890625,0.013671875 9.46875,0.041015625 C9.6484375,0.068359375 9.81640625,0.10546875 9.97265625,0.15234375 C10.1289062,0.19921875 10.2675781,0.251953125 10.3886719,0.310546875 C10.5097656,0.369140625 10.5898438,0.41796875 10.6289062,0.45703125 C10.6679688,0.49609375 10.6943359,0.529296875 10.7080078,0.556640625 C10.7216797,0.583984375 10.7333984,0.620117188 10.7431641,0.665039062 C10.7529297,0.709960938 10.7597656,0.766601562 10.7636719,0.834960938 C10.7675781,0.903320312 10.7695312,0.98828125 10.7695312,1.08984375 C10.7695312,1.203125 10.7666016,1.29882812 10.7607422,1.37695312 C10.7548828,1.45507812 10.7451172,1.51953125 10.7314453,1.5703125 C10.7177734,1.62109375 10.6982422,1.65820312 10.6728516,1.68164062 C10.6474609,1.70507812 10.6132812,1.71679688 10.5703125,1.71679688 C10.5273438,1.71679688 10.4589844,1.68945312 10.3652344,1.63476562 C10.2714844,1.58007812 10.15625,1.52050781 10.0195312,1.45605469 C9.8828125,1.39160156 9.72460938,1.33300781 9.54492188,1.28027344 C9.36523438,1.22753906 9.16796875,1.20117188 8.953125,1.20117188 C8.78515625,1.20117188 8.63867188,1.22167969 8.51367188,1.26269531 C8.38867188,1.30371094 8.28417969,1.36035156 8.20019531,1.43261719 C8.11621094,1.50488281 8.05371094,1.59179688 8.01269531,1.69335938 C7.97167969,1.79492188 7.95117188,1.90234375 7.95117188,2.015625 C7.95117188,2.18359375 7.99707031,2.32910156 8.08886719,2.45214844 C8.18066406,2.57519531 8.30371094,2.68457031 8.45800781,2.78027344 C8.61230469,2.87597656 8.78710938,2.96582031 8.98242188,3.04980469 C9.17773438,3.13378906 9.37695312,3.22265625 9.58007812,3.31640625 C9.78320312,3.41015625 9.98242188,3.51660156 10.1777344,3.63574219 C10.3730469,3.75488281 10.546875,3.89746094 10.6992188,4.06347656 C10.8515625,4.22949219 10.9746094,4.42480469 11.0683594,4.64941406 C11.1621094,4.87402344 11.2089844,5.13867188 11.2089844,5.44335938 Z" id="Path"></path>
                <path d="M16.1601562,7.44726562 C16.140625,7.51367188 16.1152344,7.56738281 16.0839844,7.60839844 C16.0527344,7.64941406 16.0019531,7.68066406 15.9316406,7.70214844 C15.8613281,7.72363281 15.765625,7.73730469 15.6445312,7.74316406 C15.5234375,7.74902344 15.3652344,7.75195312 15.1699219,7.75195312 C15.0136719,7.75195312 14.8798828,7.75097656 14.7685547,7.74902344 C14.6572266,7.74707031 14.5625,7.7421875 14.484375,7.734375 C14.40625,7.7265625 14.3427734,7.71484375 14.2939453,7.69921875 C14.2451172,7.68359375 14.2041016,7.6640625 14.1708984,7.640625 C14.1376953,7.6171875 14.1123047,7.58886719 14.0947266,7.55566406 C14.0771484,7.52246094 14.0605469,7.48046875 14.0449219,7.4296875 L11.7890625,0.708984375 C11.7421875,0.568359375 11.7138672,0.45703125 11.7041016,0.375 C11.6943359,0.29296875 11.7138672,0.231445312 11.7626953,0.190429688 C11.8115234,0.149414062 11.8945312,0.124023438 12.0117188,0.114257812 C12.1289062,0.104492188 12.2929688,0.099609375 12.5039062,0.099609375 C12.6835938,0.099609375 12.8242188,0.103515625 12.9257812,0.111328125 C13.0273438,0.119140625 13.1054688,0.1328125 13.1601562,0.15234375 C13.2148438,0.171875 13.2529297,0.201171875 13.2744141,0.240234375 C13.2958984,0.279296875 13.3164062,0.328125 13.3359375,0.38671875 L15.1816406,6.234375 L15.1875,6.234375 L16.9980469,0.416015625 C17.0136719,0.349609375 17.0332031,0.295898438 17.0566406,0.254882812 C17.0800781,0.213867188 17.1201172,0.181640625 17.1767578,0.158203125 C17.2333984,0.134765625 17.3144531,0.119140625 17.4199219,0.111328125 C17.5253906,0.103515625 17.6699219,0.099609375 17.8535156,0.099609375 C18.0332031,0.099609375 18.1728516,0.10546875 18.2724609,0.1171875 C18.3720703,0.12890625 18.4404297,0.157226562 18.4775391,0.202148438 C18.5146484,0.247070312 18.5263672,0.310546875 18.5126953,0.392578125 C18.4990234,0.474609375 18.46875,0.583984375 18.421875,0.720703125 L16.1601562,7.44726562 Z" id="Path"></path>
            </g>
        </g>
        <g id="file-type/file_monochrome" transform="translate(0.000000, 70.000000)">
            <g id="page-parts">
                <path d="M17.5,0 L17.5,13.3333333 L30,13.3333333 L30,37 C30,38.6568542 28.6568542,40 27,40 L3,40 C1.34314575,40 2.02906125e-16,38.6568542 0,37 L0,3 C-2.02906125e-16,1.34314575 1.34314575,3.04359188e-16 3,0 L17.5,0 Z" id="page" fill="#7A7A7A"></path>
                <polygon id="fold" fill="#D8D8D8" points="17.5 0 30 13.3333333 17.5 13.3333333"></polygon>
            </g>
            <path d="M5.5,32.5 L24.5,32.5 C24.7761424,32.5 25,32.7238576 25,33 L25,34.5 C25,34.7761424 24.7761424,35 24.5,35 L5.5,35 C5.22385763,35 5,34.7761424 5,34.5 L5,33 C5,32.7238576 5.22385763,32.5 5.5,32.5 Z M5.5,27 L24.5,27 C24.7761424,27 25,27.2238576 25,27.5 L25,29 C25,29.2761424 24.7761424,29.5 24.5,29.5 L5.5,29.5 C5.22385763,29.5 5,29.2761424 5,29 L5,27.5 C5,27.2238576 5.22385763,27 5.5,27 Z M5.5,21.5 L24.5,21.5 C24.7761424,21.5 25,21.7238576 25,22 L25,23.5 C25,23.7761424 24.7761424,24 24.5,24 L5.5,24 C5.22385763,24 5,23.7761424 5,23.5 L5,22 C5,21.7238576 5.22385763,21.5 5.5,21.5 Z" id="long-lines" fill="#F3F3F3"></path>
        </g>
        <g id="file-type/file">
            <g id="page-parts">
                <path d="M17.5,0 L17.5,13.3333333 L30,13.3333333 L30,37 C30,38.6568542 28.6568542,40 27,40 L3,40 C1.34314575,40 2.02906125e-16,38.6568542 0,37 L0,3 C-2.02906125e-16,1.34314575 1.34314575,3.04359188e-16 3,0 L17.5,0 Z" id="page" fill="#0081CB"></path>
                <polygon id="fold" fill="#C1DCF5" points="17.5 0 30 13.3333333 17.5 13.3333333"></polygon>
            </g>
            <path d="M5.5,32.5 L24.5,32.5 C24.7761424,32.5 25,32.7238576 25,33 L25,34.5 C25,34.7761424 24.7761424,35 24.5,35 L5.5,35 C5.22385763,35 5,34.7761424 5,34.5 L5,33 C5,32.7238576 5.22385763,32.5 5.5,32.5 Z M5.5,27 L24.5,27 C24.7761424,27 25,27.2238576 25,27.5 L25,29 C25,29.2761424 24.7761424,29.5 24.5,29.5 L5.5,29.5 C5.22385763,29.5 5,29.2761424 5,29 L5,27.5 C5,27.2238576 5.22385763,27 5.5,27 Z M5.5,21.5 L24.5,21.5 C24.7761424,21.5 25,21.7238576 25,22 L25,23.5 C25,23.7761424 24.7761424,24 24.5,24 L5.5,24 C5.22385763,24 5,23.7761424 5,23.5 L5,22 C5,21.7238576 5.22385763,21.5 5.5,21.5 Z" id="long-lines" fill="#EEF4F9"></path>
        </g>
    </g>
</svg>