<?xml version="1.0" encoding="UTF-8"?>
<svg width="40px" height="40px" viewBox="0 0 40 40" version="1.1" xmlns="http://www.w3.org/2000/svg" xmlns:xlink="http://www.w3.org/1999/xlink">
    <title>accessibility</title>
    <g id="accessibility" stroke="none" stroke-width="1" fill="none" fill-rule="evenodd">
        <g id="accessibility_40dp_5F6368_FILL0_wght400_GRAD0_opsz40" transform="translate(3, 1)" fill="#0078BD" fill-rule="nonzero">
            <path d="M13.5239196,8.1616391 C12.5859607,7.22579654 12.1169812,6.1007538 12.1169812,4.78651086 C12.1169812,3.47184466 12.5849025,2.34553212 13.5207451,1.40757323 C14.4565876,0.469191077 15.581842,0 16.8965082,0 C18.2107511,0 19.3370637,0.467921277 20.2754458,1.40376383 C21.2134047,2.34002965 21.6823842,3.46528403 21.6823842,4.77952696 C21.6823842,6.0937699 21.2144629,7.22008244 20.2786203,8.1584646 C19.3427778,9.09684675 18.2175234,9.56603783 16.9028572,9.56603783 C15.5886143,9.56603783 14.4623017,9.09790492 13.5239196,8.1616391 Z M11.6422222,37.7705682 L11.6422222,15.5782349 L11.6422222,15.5782349 L0.410188479,13.5273462 C0.172614673,13.483967 -2.5935722e-17,13.2769802 -5.55111512e-17,13.0354785 L-1.66533454e-16,10.8554361 C-2.00351141e-16,10.5792937 0.223857625,10.3554361 0.5,10.3554361 C0.510428471,10.3554361 0.520854391,10.3557623 0.531262458,10.3564143 L16.9662515,11.3860252 L16.9662515,11.3860252 L33.2684924,10.3566918 C33.544086,10.3392907 33.7816051,10.548597 33.7990063,10.8241905 C33.7996686,10.83468 33.8,10.8451877 33.8,10.8556981 L33.8,13.0354785 C33.8,13.2769802 33.6273853,13.483967 33.3898115,13.5273462 L22.1577778,15.5782349 L22.1577778,15.5782349 L22.1577778,37.7705682 C22.1577778,38.0467106 21.9339202,38.2705682 21.6577778,38.2705682 L19.0279917,38.2705682 L19.0279917,38.2705682 L17.9650986,25.315239 L15.8349014,25.315239 L14.7908419,38.0410102 C14.7802002,38.1707197 14.6718243,38.2705682 14.5416791,38.2705682 L12.1422222,38.2705682 C11.8660798,38.2705682 11.6422222,38.0467106 11.6422222,37.7705682 Z" id="Shape"></path>
        </g>
    </g>
</svg>