<?xml version="1.0" encoding="UTF-8"?>
<svg width="40px" height="40px" viewBox="0 0 40 40" version="1.1" xmlns="http://www.w3.org/2000/svg" xmlns:xlink="http://www.w3.org/1999/xlink">
    <title>controls</title>
    <g id="controls" stroke="none" stroke-width="1" fill="none" fill-rule="evenodd">
        <g id="control-1-copy" transform="translate(28, 3)" fill="#0078BD">
            <rect id="knob" x="0" y="9" width="10" height="5" rx="2.5"></rect>
            <path d="M6.5,16 L6.5,35.5 C6.5,35.7761424 6.27614237,36 6,36 L4,36 C3.72385763,36 3.5,35.7761424 3.5,35.5 L3.5,16 L6.5,16 Z M3.5,0.5 C3.5,0.223857625 3.72385763,3.38176876e-17 4,0 L6,0 C6.27614237,-5.07265313e-17 6.5,0.223857625 6.5,0.5 L6.5,7 L3.5,7 L3.5,0.5 Z" id="Combined-Shape"></path>
        </g>
        <g id="control-1-copy-2" transform="translate(15, 3)" fill="#0078BD">
            <rect id="knob" x="0" y="24" width="10" height="5" rx="2.5"></rect>
            <path d="M6.5,31 L6.5,35.5 C6.5,35.7761424 6.27614237,36 6,36 L4,36 C3.72385763,36 3.5,35.7761424 3.5,35.5 L3.5,31 L6.5,31 Z M3.5,0.5 C3.5,0.223857625 3.72385763,3.38176876e-17 4,0 L6,0 C6.27614237,-5.07265313e-17 6.5,0.223857625 6.5,0.5 L6.5,22 L3.5,22 L3.5,0.5 Z" id="Combined-Shape"></path>
        </g>
        <g id="control-1" transform="translate(2, 3)" fill="#0078BD">
            <rect id="knob" x="0" y="6" width="10" height="5" rx="2.5"></rect>
            <path d="M6.5,13 L6.5,35.5 C6.5,35.7761424 6.27614237,36 6,36 L4,36 C3.72385763,36 3.5,35.7761424 3.5,35.5 L3.5,13 L6.5,13 Z M3.5,0.5 C3.5,0.223857625 3.72385763,3.38176876e-17 4,0 L6,0 C6.27614237,-5.07265313e-17 6.5,0.223857625 6.5,0.5 L6.5,4 L3.5,4 L3.5,0.5 Z" id="Combined-Shape"></path>
        </g>
    </g>
</svg>