<?xml version="1.0" encoding="UTF-8"?>
<svg width="194px" height="22px" viewBox="0 0 194 22" version="1.1" xmlns="http://www.w3.org/2000/svg" xmlns:xlink="http://www.w3.org/1999/xlink">
    <title>logo-white-tj</title>
    <g id="logo-white-tj" stroke="none" stroke-width="1" fill="none" fill-rule="evenodd">
        <g id="Logo" transform="translate(1.000000, 0.700000)" fill="#FFFFFF" fill-rule="nonzero">
            <g id="Jaspersoft-UI-Centra-shapes" transform="translate(75.913000, 0.418000)">
                <path d="M9.982,11.546 L9.982,0.782 L8.142,0.782 L8.142,11.569 C8.142,14.122 6.808,15.433 4.991,15.433 C3.312,15.433 2.3,14.628 1.311,13.133 L0,14.26 C1.012,15.916 2.553,17.112 4.968,17.112 C7.843,17.112 9.982,15.249 9.982,11.546 Z" id="Path"></path>
                <path d="M17.785,6.394 C20.016,6.394 21.327,7.498 21.327,9.637 L21.327,10.051 C20.269,9.752 19.188,9.545 17.67,9.545 C14.657,9.545 12.587,10.879 12.587,13.409 C12.587,15.893 14.818,17.135 17.026,17.135 C19.119,17.135 20.499,16.169 21.327,15.088 L21.327,16.882 L23.029,16.882 L23.029,9.614 C23.029,6.486 21.212,4.83 17.969,4.83 C16.244,4.83 14.956,5.221 13.645,5.819 L14.174,7.268 C15.278,6.762 16.382,6.394 17.785,6.394 Z M17.854,10.856 C19.303,10.856 20.476,11.109 21.35,11.362 L21.35,12.512 C21.35,14.398 19.556,15.732 17.371,15.732 C15.761,15.732 14.381,14.858 14.381,13.34 C14.381,11.822 15.623,10.856 17.854,10.856 Z" id="Shape"></path>
                <path d="M34.466,13.547 L34.466,13.501 C34.466,11.362 32.488,10.649 30.648,10.097 C29.061,9.614 27.589,9.177 27.589,8.05 L27.589,8.004 C27.589,7.015 28.486,6.279 29.889,6.279 C31.039,6.279 32.304,6.716 33.408,7.429 L34.213,6.095 C32.994,5.29 31.384,4.784 29.935,4.784 C27.589,4.784 25.887,6.141 25.887,8.188 L25.887,8.234 C25.887,10.419 27.957,11.063 29.82,11.592 C31.384,12.029 32.787,12.489 32.787,13.685 L32.787,13.731 C32.787,14.881 31.752,15.617 30.326,15.617 C28.923,15.617 27.497,15.065 26.209,14.099 L25.312,15.364 C26.646,16.445 28.532,17.112 30.234,17.112 C32.603,17.112 34.466,15.801 34.466,13.547 Z" id="Path"></path>
                <path d="M49.261,10.925 C49.261,6.992 46.432,4.738 43.58,4.738 C41.395,4.738 39.992,5.957 39.026,7.383 L39.026,4.991 L37.255,4.991 L37.255,20.562 L39.026,20.562 L39.026,14.605 C39.946,15.939 41.372,17.135 43.58,17.135 C46.455,17.135 49.261,14.835 49.261,10.925 Z M47.444,10.948 C47.444,13.846 45.558,15.548 43.258,15.548 C41.05,15.548 38.957,13.708 38.957,10.925 C38.957,8.165 41.05,6.325 43.258,6.325 C45.512,6.325 47.444,8.119 47.444,10.948 Z" id="Shape"></path>
                <path d="M53.085,11.592 L62.515,11.592 C62.538,11.385 62.538,11.201 62.538,11.04 C62.538,7.544 60.514,4.738 56.995,4.738 C53.706,4.738 51.291,7.498 51.291,10.948 C51.291,14.651 53.959,17.158 57.225,17.158 C59.479,17.158 60.928,16.261 62.124,14.927 L61.02,13.938 C60.054,14.95 58.904,15.617 57.271,15.617 C55.178,15.617 53.338,14.168 53.085,11.592 Z M53.085,10.281 C53.315,7.958 54.879,6.233 56.949,6.233 C59.318,6.233 60.56,8.119 60.744,10.281 L53.085,10.281 Z" id="Shape"></path>
                <path d="M66.914,12.144 C66.914,8.556 69.03,6.693 71.629,6.693 L71.767,6.693 L71.767,4.784 C69.513,4.692 67.788,6.118 66.914,8.096 L66.914,4.991 L65.143,4.991 L65.143,16.882 L66.914,16.882 L66.914,12.144 Z" id="Path"></path>
                <path d="M82.123,13.547 L82.123,13.501 C82.123,11.362 80.145,10.649 78.305,10.097 C76.718,9.614 75.246,9.177 75.246,8.05 L75.246,8.004 C75.246,7.015 76.143,6.279 77.546,6.279 C78.696,6.279 79.961,6.716 81.065,7.429 L81.87,6.095 C80.651,5.29 79.041,4.784 77.592,4.784 C75.246,4.784 73.544,6.141 73.544,8.188 L73.544,8.234 C73.544,10.419 75.614,11.063 77.477,11.592 C79.041,12.029 80.444,12.489 80.444,13.685 L80.444,13.731 C80.444,14.881 79.409,15.617 77.983,15.617 C76.58,15.617 75.154,15.065 73.866,14.099 L72.969,15.364 C74.303,16.445 76.189,17.112 77.891,17.112 C80.26,17.112 82.123,15.801 82.123,13.547 Z" id="Path"></path>
                <path d="M96.573,10.925 C96.573,7.544 93.951,4.738 90.386,4.738 C86.798,4.738 84.176,7.59 84.176,10.971 C84.176,14.352 86.775,17.158 90.34,17.158 C93.928,17.158 96.573,14.306 96.573,10.925 Z M94.756,10.971 C94.756,13.524 92.962,15.571 90.386,15.571 C87.879,15.571 85.993,13.501 85.993,10.925 C85.993,8.349 87.764,6.302 90.34,6.302 C92.847,6.302 94.756,8.372 94.756,10.971 Z" id="Shape"></path>
                <path d="M101.685,5.037 L101.685,4.071 C101.685,2.369 102.375,1.541 103.755,1.541 C104.353,1.541 104.836,1.656 105.48,1.84 L105.48,0.299 C104.905,0.092 104.353,0 103.525,0 C101.248,0 99.937,1.38 99.937,3.979 L99.937,5.014 L98.304,5.014 L98.304,6.555 L99.937,6.555 L99.937,16.882 L101.708,16.882 L101.708,6.555 L105.457,6.555 L105.457,5.037 L101.685,5.037 Z" id="Path"></path>
                <path d="M109.603,6.555 L113.375,6.555 L113.375,4.991 L109.603,4.991 L109.603,1.403 L107.832,1.403 L107.832,4.991 L106.176,4.991 L106.176,6.555 L107.832,6.555 L107.832,13.731 C107.832,16.146 109.281,17.089 111.19,17.089 C112.041,17.089 112.708,16.905 113.329,16.583 L113.329,15.065 C112.708,15.364 112.202,15.479 111.604,15.479 C110.408,15.479 109.603,14.95 109.603,13.501 L109.603,6.555 Z" id="Path"></path>
            </g>
            <g id="TIBCO-shapes" transform="translate(0.000000, 1.000000)">
                <polygon id="Path" points="8.10928962 2.17351598 8.10928962 17 5.89071038 17 5.89071038 2.17351598 0 2.17351598 0 0 14 0 14 2.17351598"></polygon>
                <rect id="Rectangle" x="16" y="0" width="2" height="17"></rect>
                <path d="M27.5384615,9.58181818 L24.2307692,9.58181818 L24.2307692,14.9136364 L27.9230769,14.9136364 C30.4615385,14.9136364 31.6923077,13.9863636 31.6923077,12.2863636 C31.6923077,10.2772727 29.9230769,9.58181818 27.5384615,9.58181818 M27.7692308,2.16363636 L24.3076923,2.16363636 L24.3076923,7.49545455 L27.3846154,7.49545455 C29.8461538,7.49545455 31.1538462,6.41363636 31.1538462,4.71363636 C31.1538462,3.09090909 29.9230769,2.16363636 27.7692308,2.16363636 M34,12.2090909 C34,15.0681818 32.0769231,17 27.7692308,17 L22,17 L22,0 L27.6153846,0 C31.6923077,0 33.4615385,1.85454545 33.4615385,4.48181818 C33.4615385,6.25909091 32.4615385,7.49545455 30.5384615,8.19090909 C32.7692308,8.80909091 34,10.2772727 34,12.2090909" id="Shape"></path>
                <path d="M49.2222222,3.32272727 C47.7444444,2.39545455 46.3444444,1.93181818 44.5555556,1.93181818 C40.8222222,1.93181818 38.3333333,4.40454545 38.3333333,8.42272727 C38.3333333,12.4409091 40.8222222,14.9909091 44.6333333,14.9909091 C46.5,14.9909091 48.2888889,14.2954545 49.4555556,13.4454545 L49.8444444,15.6863636 C48.4444444,16.5363636 46.5,17 44.5555556,17 C39.5777778,17 36,13.6772727 36,8.57727273 C36,3.4 39.5777778,0 44.5555556,0 C46.5,0 48.6,0.540909091 50,1.31363636 L49.2222222,3.32272727 Z" id="Path"></path>
                <g id="Group" transform="translate(50.000000, 0.000000)">
                    <path d="M13.1538462,1.15909091 C12.9230769,1.00454545 12.6153846,0.85 12.3846154,0.772727273 C10.1538462,4.86818182 6.15384615,9.65909091 0.846153846,12.4409091 C1.15384615,13.1363636 1.53846154,13.6772727 2,14.2181818 C6.61538462,11.2045455 10.7692308,6.18181818 13.1538462,1.15909091" id="Path"></path>
                    <path d="M12.1538462,0.695454545 C11.0769231,0.231818182 9.84615385,0 8.46153846,0 C3.53846154,0 0,3.70909091 0,8.5 C0,9.35 0.0769230769,10.1227273 0.230769231,10.8181818 C5.38461538,8.88636364 9.92307692,4.48181818 12.1538462,0.695454545" id="Path"></path>
                    <path d="M13.3846154,1.31363636 C10.7692308,7.49545455 7.61538462,11.8227273 3.53846154,15.6090909 C4.92307692,16.5363636 6.61538462,17 8.53846154,17 C13.4615385,17 17,13.2909091 17,8.42272727 C17,5.25454545 15.6153846,2.70454545 13.3846154,1.31363636" id="Path"></path>
                </g>
            </g>
            <g id="R-symbol---Jaspersoft" transform="translate(188.800000, 0.000000)">
                <path d="M0.380952381,2 C0.380952381,1.14285714 1.14285714,0.380952381 2,0.380952381 C2.85714286,0.380952381 3.61904762,1.14285714 3.61904762,2 C3.61904762,2.85714286 2.85714286,3.61904762 2,3.61904762 C1.04761905,3.61904762 0.380952381,2.85714286 0.380952381,2 M0,2 C0,3.04761905 0.857142857,4 2,4 C3.14285714,4 4,3.14285714 4,2 C4,0.857142857 3.14285714,0 2,0 C0.857142857,0 0,0.857142857 0,2" id="Shape"></path>
                <path d="M1.71437872,2.08426339 L1.71437872,2.85714286 L1.48697917,2.85714286 L1.48697917,0.990513393 L1.97107515,0.990513393 C2.0529208,0.990513393 2.12244205,0.993536056 2.179641,0.999581473 C2.23683994,1.00562689 2.28915527,1.01515991 2.33658854,1.0281808 C2.46679753,1.06352324 2.5663129,1.12374399 2.63513765,1.20884487 C2.7039624,1.29394574 2.73837426,1.40020398 2.73837426,1.52762277 C2.73837426,1.60295797 2.7262836,1.67038661 2.70210193,1.72991071 C2.67792027,1.78943482 2.64397343,1.84105261 2.60026042,1.88476562 C2.5565474,1.92847864 2.50423208,1.96428557 2.44331287,1.9921875 C2.38239367,2.02008943 2.31473251,2.04055053 2.24032738,2.05357143 L2.24032738,2.05915179 L2.8499814,2.85714286 L2.5639881,2.85714286 L1.98921131,2.08426339 L1.71437872,2.08426339 Z M1.71437872,1.19559152 L1.71437872,1.87918527 L1.9389881,1.87918527 C2.00874291,1.87918527 2.06826612,1.87686014 2.11755952,1.87220982 C2.16685293,1.8675595 2.21103031,1.85918905 2.25009301,1.84709821 C2.32914846,1.82291655 2.39006675,1.78431946 2.4328497,1.7313058 C2.47563265,1.67829215 2.49702381,1.6090034 2.49702381,1.5234375 C2.49609375,1.44345198 2.47563264,1.379046 2.43563988,1.33021763 C2.39564712,1.28138926 2.34030913,1.24627987 2.26962426,1.22488839 C2.23614195,1.21465769 2.19614979,1.20721729 2.14964658,1.20256696 C2.10314337,1.19791664 2.04408518,1.19559152 1.97247024,1.19559152 L1.71437872,1.19559152 Z" id="R"></path>
            </g>
            <g id="R-symbol---TIBCO" transform="translate(65.800000, 0.000000)">
                <path d="M0.380952381,2 C0.380952381,1.14285714 1.14285714,0.380952381 2,0.380952381 C2.85714286,0.380952381 3.61904762,1.14285714 3.61904762,2 C3.61904762,2.85714286 2.85714286,3.61904762 2,3.61904762 C1.04761905,3.61904762 0.380952381,2.85714286 0.380952381,2 M0,2 C0,3.04761905 0.857142857,4 2,4 C3.14285714,4 4,3.14285714 4,2 C4,0.857142857 3.14285714,0 2,0 C0.857142857,0 0,0.857142857 0,2" id="Shape"></path>
                <path d="M1.71437872,2.08426339 L1.71437872,2.85714286 L1.48697917,2.85714286 L1.48697917,0.990513393 L1.97107515,0.990513393 C2.0529208,0.990513393 2.12244205,0.993536056 2.179641,0.999581473 C2.23683994,1.00562689 2.28915527,1.01515991 2.33658854,1.0281808 C2.46679753,1.06352324 2.5663129,1.12374399 2.63513765,1.20884487 C2.7039624,1.29394574 2.73837426,1.40020398 2.73837426,1.52762277 C2.73837426,1.60295797 2.7262836,1.67038661 2.70210193,1.72991071 C2.67792027,1.78943482 2.64397343,1.84105261 2.60026042,1.88476562 C2.5565474,1.92847864 2.50423208,1.96428557 2.44331287,1.9921875 C2.38239367,2.02008943 2.31473251,2.04055053 2.24032738,2.05357143 L2.24032738,2.05915179 L2.8499814,2.85714286 L2.5639881,2.85714286 L1.98921131,2.08426339 L1.71437872,2.08426339 Z M1.71437872,1.19559152 L1.71437872,1.87918527 L1.9389881,1.87918527 C2.00874291,1.87918527 2.06826612,1.87686014 2.11755952,1.87220982 C2.16685293,1.8675595 2.21103031,1.85918905 2.25009301,1.84709821 C2.32914846,1.82291655 2.39006675,1.78431946 2.4328497,1.7313058 C2.47563265,1.67829215 2.49702381,1.6090034 2.49702381,1.5234375 C2.49609375,1.44345198 2.47563264,1.379046 2.43563988,1.33021763 C2.39564712,1.28138926 2.34030913,1.24627987 2.26962426,1.22488839 C2.23614195,1.21465769 2.19614979,1.20721729 2.14964658,1.20256696 C2.10314337,1.19791664 2.04408518,1.19559152 1.97247024,1.19559152 L1.71437872,1.19559152 Z" id="R"></path>
            </g>
        </g>
    </g>
</svg>