<?xml version="1.0" encoding="UTF-8"?>
<svg width="461px" height="461px" viewBox="0 0 461 461" version="1.1" xmlns="http://www.w3.org/2000/svg" xmlns:xlink="http://www.w3.org/1999/xlink">
    <title>social-round-li</title>
    <g id="Page-2" stroke="none" stroke-width="1" fill="none" fill-rule="evenodd">
        <g id="social-round-li" fill-rule="nonzero">
            <path d="M460.733322,230.359994 C460.733322,103.133331 357.586658,0 230.359994,0 C103.133331,0 0,103.133331 0,230.359994 C0,357.599991 103.133331,460.733322 230.359994,460.733322 C357.586658,460.733322 460.733322,357.599991 460.733322,230.359994 Z M166.093329,339.879992 C166.093329,356.866658 152.319996,370.639991 135.346663,370.639991 C118.359997,370.639991 104.586664,356.866658 104.586664,339.879992 C104.586664,322.893325 118.359997,309.133326 135.346663,309.133326 C152.319996,309.133326 166.093329,322.893325 166.093329,339.879992 Z M247.70666,273.54666 L244.653327,281.133326 C243.346661,284.42666 240.946661,286.06666 237.466662,286.06666 L201.879995,285.959993 C198.333328,285.959993 195.466662,283.093326 195.466662,279.559993 L195.466662,279.453326 L195.466662,122.039997 C195.466662,118.546664 198.333328,115.719997 201.879995,115.719997 L242.586661,115.719997 C245.813327,115.719997 247.453327,117.33333 247.519994,120.559997 C248.10666,150.25333 248.26666,179.866662 248.013327,209.373328 C247.519994,251.66666 307.053326,263.093327 306.853326,201.093328 C306.786659,174.479996 306.919992,147.666663 307.253326,120.65333 C307.253326,117.239997 308.933326,115.559997 312.279992,115.626664 L355.359991,116.119997 C358.639991,116.186664 360.319991,117.866664 360.386658,121.146664 C361.173324,155.519996 361.426658,189.813329 361.173324,224.053328 C360.679991,285.173326 297.879993,313.173326 253.919994,272.159993 C251.159994,269.66666 249.093327,270.133327 247.70666,273.54666 L247.70666,273.54666 Z M161.426663,280.58666 C161.413329,283.639993 158.946663,286.10666 155.893329,286.10666 L114.49333,286.02666 C111.439997,286.02666 108.973331,283.54666 108.98661,280.493326 L109.266664,121.399997 C109.266664,118.346664 111.746664,115.879997 114.786664,115.893277 L114.786664,115.893277 L156.186663,115.959997 C159.239996,115.959997 161.706663,118.439997 161.706663,121.49333 L161.426663,280.58666 L161.426663,280.58666" id="path98" fill="#686868" transform="translate(230.3667, 230.3667) scale(-1, 1) rotate(-180) translate(-230.3667, -230.3667)"></path>
            <path d="M135.346663,90.0933311 C152.319996,90.0933311 166.093329,103.866664 166.093329,120.85333 C166.093329,137.839997 152.319996,151.599996 135.346663,151.599996 C118.359997,151.599996 104.586664,137.839997 104.586664,120.85333 C104.586664,103.866664 118.359997,90.0933311 135.346663,90.0933311 L135.346663,90.0933311 M253.919994,188.573329 C297.879993,147.559996 360.679991,175.559996 361.173324,236.679994 C361.426658,270.919993 361.173324,305.213326 360.386658,339.586658 C360.319991,342.866658 358.639991,344.546658 355.359991,344.613325 L312.279992,345.106658 C308.933326,345.173325 307.253326,343.493325 307.253326,340.079991 C306.919992,313.066659 306.786659,286.253326 306.853326,259.639994 C307.053326,197.639995 247.519994,209.066661 248.013327,251.359994 C248.26666,280.86666 248.10666,310.479992 247.519994,340.173325 C247.453327,343.399991 245.813327,345.013325 242.586661,345.013325 L201.879995,345.013325 C198.333328,345.013325 195.465919,342.186658 195.465919,338.693325 L195.465919,181.279995 C195.413328,177.733329 198.239995,174.826662 201.773328,174.773329 L201.879995,174.773329 L237.466661,174.666662 C240.946661,174.666662 243.346661,176.306662 244.653327,179.599996 L247.70666,187.186662 C249.093327,190.599995 251.159994,191.066662 253.919994,188.573329 L253.919994,188.573329 M114.49333,174.706662 L155.893329,174.626662 C158.946663,174.626662 161.413329,177.093329 161.426663,180.146662 L161.706663,339.239992 C161.706663,342.293325 159.239996,344.773325 156.186663,344.773325 L114.786664,344.840045 C111.746664,344.853325 109.266664,342.386658 109.266664,339.333325 L108.98661,180.239995 C108.973331,177.186662 111.439997,174.706662 114.49333,174.706662 L114.49333,174.706662" id="Combined-Shape" fill="#FFFFFF"></path>
        </g>
    </g>
</svg>