<?xml version="1.0" encoding="UTF-8"?>
<svg width="464px" height="464px" viewBox="0 0 464 464" version="1.1" xmlns="http://www.w3.org/2000/svg" xmlns:xlink="http://www.w3.org/1999/xlink">
    <title>social-round-tw</title>
    <g id="Page-2" stroke="none" stroke-width="1" fill="none" fill-rule="evenodd">
        <g id="social-round-tw" fill-rule="nonzero">
            <path d="M463.586655,231.786661 C463.586655,359.799991 359.813324,463.586655 231.786661,463.586655 C103.773331,463.586655 0,359.799991 0,231.786661 L0,231.786661 C0,103.773331 103.773331,0 231.786661,0 C359.813324,0 463.586655,103.773331 463.586655,231.786661 L460.919988,231.786661 C460.919988,168.519996 435.279989,111.239997 393.813323,69.7733316 C352.346658,28.306666 295.066659,2.6666666 231.786661,2.6666666 C168.519996,2.6666666 111.239997,28.306666 69.7733316,69.7733316 C28.306666,111.239997 2.6666666,168.519996 2.6666666,231.786661 C2.6666666,295.066659 28.306666,352.333325 69.7733316,393.813323 C111.239997,435.266656 168.519996,460.919988 231.786661,460.919988 C295.066659,460.919988 352.346658,435.266656 393.813323,393.813323 C435.279989,352.333325 460.919988,295.066659 460.919988,231.786661 L463.586655,231.786661 L463.586655,231.786661" id="path304" fill="#8C8B8D" transform="translate(231.7933, 231.7933) scale(-1, 1) rotate(-180) translate(-231.7933, -231.7933)"></path>
            <path d="M214.066661,196.693328 L271.82666,118.919997 L271.82666,118.906664 C276.30666,112.933331 283.34666,109.413331 290.839993,109.413331 L349.306658,109.213331 L349.319991,109.213331 C351.759991,109.266664 353.706658,111.266664 353.706658,113.69333 L353.706658,113.799997 L353.706658,113.799997 L353.706658,113.799997 C353.679991,114.719997 353.373324,115.61333 352.826658,116.359997 L352.826658,116.359997 L258.079994,242.066661 L258.093327,242.053327 C257.359994,243.013327 256.999994,244.159994 256.999994,245.293327 C256.999994,246.599994 257.46666,247.90666 258.399994,248.919994 L258.399994,248.919994 L338.239992,335.866658 L338.253325,335.866658 C338.866658,336.546658 339.359992,337.226658 339.706658,337.946658 C340.053325,338.653325 340.253325,339.399992 340.253325,340.159991 C340.253325,341.119991 339.906658,342.053325 339.319992,342.813325 C338.733325,343.599991 337.933325,344.239991 336.946658,344.813325 L336.279992,343.666658 L336.959992,344.813325 C334.746658,346.146658 332.239992,346.813325 329.559992,346.813325 C329.173325,346.813325 328.786658,346.799997 328.399992,346.773325 L328.386658,346.773325 L328.373325,346.773325 C326.639992,346.613325 324.919992,346.039991 323.199992,345.079991 C321.493325,344.106658 319.799992,342.773325 318.079992,341.053325 L318.079992,341.053325 L318.079992,341.053325 C293.479993,316.066659 269.973327,291.013326 247.559994,265.893327 L247.559994,265.893327 C246.533327,264.773327 245.133327,264.199993 243.719994,264.199993 C242.479994,264.199993 241.253327,264.639993 240.253327,265.533327 C239.999994,265.759993 239.773327,266.013327 239.559994,266.293327 L184.266662,341.106658 L184.266662,341.106658 C182.159995,343.986658 178.799996,345.679991 175.213329,345.693325 L175.213329,345.693325 L113.213331,345.986658 L113.213331,345.986658 C110.026664,345.986658 107.439997,343.399991 107.439997,340.213325 C107.439997,338.959992 107.839997,337.746658 108.599997,336.746658 L108.599997,336.746658 L195.146662,222.413328 L195.146662,222.399994 C196.599995,220.479994 197.319995,218.226661 197.319995,215.959995 C197.319995,213.346661 196.359995,210.759995 194.453328,208.746661 L194.439997,208.746661 L111.253331,119.33333 L111.239997,119.33333 C110.679997,118.719997 110.226664,118.09333 109.893331,117.426664 C109.573331,116.759997 109.386664,116.066664 109.386664,115.346664 C109.386664,114.45333 109.693331,113.586664 110.199997,112.853331 C110.706664,112.119997 111.413331,111.493331 112.266664,110.906664 L113.013331,112.026664 L112.253331,110.919997 C115.186664,108.906664 118.079997,107.799997 120.93333,107.799997 C123.919997,107.799997 126.73333,109.039997 129.199997,111.346664 L129.186663,111.333331 C144.919996,125.746664 171.199996,154.239996 208.159995,196.906662 L208.159995,196.906662 C208.759995,197.613328 209.319995,198.093328 209.813328,198.386662 C210.319995,198.679995 210.719995,198.786662 211.093328,198.786662 C211.493328,198.786662 211.893328,198.666662 212.399995,198.346662 C212.906661,198.026662 213.466661,197.479995 214.066661,196.679995 L216.199995,198.279995 C215.466661,199.253328 214.706661,200.026662 213.866661,200.586662 C213.013328,201.133328 212.066661,201.453328 211.093328,201.453328 C210.173328,201.453328 209.279995,201.173328 208.453328,200.679995 C207.639995,200.186662 206.879995,199.506662 206.133328,198.653328 L206.146662,198.653328 C169.226662,156.026663 142.946663,127.546663 127.386663,113.306664 L127.37333,113.293331 L127.386663,113.293331 C125.266664,111.346664 123.17333,110.479997 120.93333,110.466664 C118.786664,110.466664 116.41333,111.293331 113.77333,113.119997 L113.759997,113.119997 L113.746664,113.133331 C113.093331,113.57333 112.639997,113.999997 112.386664,114.37333 C112.146664,114.746664 112.066664,115.026664 112.053331,115.346664 C112.053331,115.599997 112.119997,115.89333 112.293331,116.25333 C112.479997,116.626664 112.773331,117.05333 113.199997,117.53333 L196.386662,206.919995 L195.413328,207.839995 L196.386662,206.919995 C198.773328,209.426661 199.986662,212.693328 199.986662,215.959995 C199.986662,218.786661 199.093328,221.626661 197.266662,224.013328 L197.266662,224.013328 L110.719997,338.359992 L110.733331,338.346658 C110.319997,338.893325 110.106664,339.546658 110.106664,340.213325 C110.106664,341.933325 111.493331,343.319991 113.213331,343.319991 L113.199997,343.319991 L175.199996,343.026658 L175.213329,343.026658 C177.946662,343.013325 180.519995,341.719991 182.119995,339.519992 L182.119995,339.519992 L237.426661,264.70666 C237.733327,264.293327 238.079994,263.90666 238.466661,263.54666 C239.959994,262.199993 241.853327,261.533327 243.719994,261.533327 C245.853327,261.533327 247.999994,262.399993 249.533327,264.10666 L249.54666,264.119993 C271.933327,289.199993 295.413326,314.226659 319.973325,339.186658 L319.973325,339.173325 C321.546659,340.746658 323.066659,341.933325 324.506659,342.746658 C325.959992,343.559991 327.319992,343.999991 328.599992,344.106658 L328.493325,345.439991 L328.586658,344.106658 C328.919992,344.133325 329.239992,344.146658 329.559992,344.146658 C331.813325,344.146658 333.786658,343.599991 335.586658,342.519991 L335.599992,342.519991 L335.599992,342.519991 C336.386658,342.066658 336.893325,341.613325 337.186658,341.213325 C337.479992,340.813325 337.586658,340.506658 337.586658,340.159991 C337.586658,339.866658 337.506658,339.533325 337.306658,339.106658 C337.106658,338.693325 336.759992,338.199992 336.279992,337.653325 L336.279992,337.666658 L256.439997,250.719994 L256.439997,250.719994 C255.039994,249.199994 254.333327,247.253327 254.333327,245.293327 C254.333327,243.599994 254.86666,241.879994 255.959994,240.439994 L255.959994,240.439994 L350.693325,114.77333 L350.679991,114.77333 C350.906658,114.479997 351.026658,114.119997 351.039991,113.73333 L351.039991,113.746664 L351.039991,113.69333 C351.039991,112.706664 350.253325,111.893331 349.253325,111.879997 L349.293325,110.546664 L349.293325,111.879997 L290.839993,112.079997 L290.839993,112.079997 C284.18666,112.079997 277.933326,115.199997 273.959993,120.506664 L273.973326,120.506664 L216.199995,198.279995 L214.066661,196.693328 L214.066661,196.693328" id="path306" fill="#8C8B8D" transform="translate(230.5733, 227.3067) scale(-1, 1) rotate(-180) translate(-230.5733, -227.3067)"></path>
            <path d="M173.426662,327.199992 C172.453329,328.533325 170.893329,329.333325 169.253329,329.333325 L169.159996,329.333325 L169.199996,327.999992 L169.186662,329.333325 L146.21333,329.133325 L146.21333,329.133325 C143.37333,329.093325 141.106663,326.786658 141.106663,323.959992 L141.106663,323.879992 C141.119996,322.813325 141.466663,321.773325 142.09333,320.893325 L142.106663,320.893325 L286.706659,127.586663 L287.773326,128.386663 L286.706659,127.599997 C287.679993,126.266664 289.239993,125.479997 290.879993,125.479997 L290.919993,125.479997 L290.933326,125.479997 L314.013325,125.679997 L314.013325,125.679997 C316.853325,125.706664 319.133325,128.026663 319.133325,130.85333 L319.133325,130.919997 L319.133325,130.919997 C319.119992,131.999997 318.773325,133.039997 318.133325,133.906663 L318.133325,133.906663 L173.413329,327.213325 L171.279996,325.613325 L315.986659,132.319997 L317.053325,133.119997 L315.973325,132.33333 C316.279992,131.906663 316.453325,131.399997 316.466659,130.879997 L316.466659,130.89333 L316.466659,130.85333 C316.466659,129.479997 315.359992,128.359997 313.986659,128.346663 L313.946659,128.346663 L290.919993,128.146663 L290.933326,126.81333 L290.946659,128.146663 L290.879993,128.146663 C290.079993,128.146663 289.333326,128.53333 288.853326,129.17333 L288.853326,129.186663 L144.239996,322.479997 L143.17333,321.693325 L144.25333,322.466659 C143.946663,322.893325 143.77333,323.399992 143.77333,323.919992 L143.77333,323.959992 C143.77333,325.319992 144.866663,326.453325 146.25333,326.466659 L169.213329,326.666658 L169.226662,326.666658 L169.253329,326.666658 C170.053329,326.666658 170.799996,326.279992 171.279996,325.626659 L173.426662,327.199992 L173.426662,327.199992" id="path308" fill="#8C8B8D" transform="translate(230.12, 227.4067) scale(-1, 1) rotate(-180) translate(-230.12, -227.4067)"></path>
            <path d="M231.786661,1.3333333 C359.066658,1.3333333 462.253322,104.519997 462.253322,231.799994 C462.253322,359.079991 359.066658,462.253322 231.786661,462.253322 C104.506664,462.253322 1.3333333,359.079991 1.3333333,231.799994 C1.3333333,104.519997 104.506664,1.3333333 231.786661,1.3333333 Z M328.493325,109.173331 C325.466659,109.439997 322.319992,111.213331 319.026659,114.49333 C294.453326,139.466663 270.959993,164.506663 248.54666,189.613329 C246.133327,192.279995 242.026661,192.479995 239.359994,190.066662 C239.039994,189.786662 238.746661,189.466662 238.493327,189.119995 L183.199995,114.29333 C181.346662,111.759997 178.373329,110.266664 175.213329,110.253331 L113.213331,109.959997 C110.759997,109.959997 108.773331,111.946664 108.773331,114.399997 C108.773331,115.359997 109.079997,116.29333 109.666664,117.066664 L196.199995,231.399994 C199.746662,236.053327 199.413328,242.573327 195.413328,246.773327 L112.226664,336.186658 C109.986664,338.613325 110.253331,340.746658 113.013331,342.586658 C118.73333,346.533325 123.826664,346.439991 128.29333,342.293325 C143.93333,327.973325 170.213329,299.479993 207.146661,256.839994 C209.906661,253.613327 212.573328,253.70666 215.133328,257.133327 L272.893327,334.906658 C277.119993,340.546658 283.759993,343.866658 290.839993,343.866658 L349.293325,344.066658 C351.026658,344.026658 352.413325,342.586658 352.374169,340.839991 C352.359991,340.199991 352.133325,339.559992 351.746658,339.039992 L257.02666,213.359995 C255.06666,210.786661 255.239994,207.173328 257.413327,204.786662 L337.266658,117.85333 C339.759992,115.09333 339.426658,112.786664 336.279992,110.946664 C333.973325,109.573331 331.386658,108.973331 328.493325,109.173331 Z M169.199996,126.813108 C170.439996,126.799997 171.613329,127.386663 172.346662,128.399997 L317.053325,321.693325 C318.306659,323.413325 317.933325,325.813325 316.213325,327.066658 C315.573325,327.533325 314.799992,327.799992 313.999992,327.799992 L290.933326,328.000214 C289.693326,328.013325 288.519993,327.426658 287.773326,326.426659 L143.17333,133.119997 C141.919996,131.41333 142.29333,129.01333 144.01333,127.759997 C144.65333,127.279997 145.426663,127.026663 146.226663,127.01333 L169.199996,126.813108 Z" id="Combined-Shape" fill="#686868"></path>
            <path d="M207.146661,197.772508 C170.213329,155.132509 143.93333,126.639176 128.29333,112.319177 C123.826664,108.17251 118.73333,108.079177 113.013331,112.025844 C110.253331,113.865843 109.986664,115.999177 112.226664,118.425843 L195.413328,207.839174 C199.413328,212.039174 199.746662,218.559174 196.199995,223.212507 L109.666664,337.545838 C108.186664,339.519171 108.586664,342.292504 110.546664,343.759171 C111.319997,344.332504 112.253331,344.652504 113.213331,344.652504 L175.213329,344.359171 C178.373329,344.345838 181.346662,342.852504 183.199995,340.319171 L238.493327,265.492506 C240.626661,262.612506 244.706661,261.999173 247.599994,264.132506 C247.933327,264.399173 248.253327,264.679173 248.54666,264.999173 C270.959993,290.105839 294.453326,315.145838 319.026659,340.119171 C322.319992,343.399171 325.466659,345.172504 328.493325,345.439171 C331.386658,345.639171 333.973325,345.039171 336.279992,343.665838 C339.426658,341.825838 339.759992,339.519171 337.266658,336.759171 L257.413327,249.82584 C255.239994,247.439173 255.06666,243.82584 257.02666,241.252507 L351.746658,115.57251 C352.786658,114.17251 352.493325,112.199177 351.093325,111.159177 C350.559991,110.77251 349.933325,110.559177 349.293325,110.545844 L290.839993,110.745844 C283.759993,110.745844 277.119993,114.065843 272.893327,119.705843 L215.133328,197.479175 C212.573328,200.905841 209.906661,200.999175 207.146661,197.772508 Z M172.346662,326.212505 C171.613329,327.225838 170.439996,327.812505 169.199996,327.799394 L146.226663,327.599171 C144.106663,327.572505 142.41333,325.825838 142.439686,323.705838 C142.439686,322.905838 142.706663,322.132505 143.17333,321.492505 L287.773326,128.185843 C288.519993,127.185843 289.693326,126.599176 290.933326,126.612287 L313.999992,126.81251 C316.119992,126.839176 317.826659,128.57251 317.8003,130.705843 C317.786659,131.49251 317.533325,132.279176 317.053325,132.919176 L172.346662,326.212505 L172.346662,326.212505" id="path312" fill="#FFFFFF" transform="translate(230.5707, 227.3063) scale(-1, 1) rotate(-180) translate(-230.5707, -227.3063)"></path>
        </g>
    </g>
</svg>