<?xml version="1.0" encoding="UTF-8"?>
<svg width="40px" height="40px" viewBox="0 0 40 40" version="1.1" xmlns="http://www.w3.org/2000/svg" xmlns:xlink="http://www.w3.org/1999/xlink">
    <title>open-source copy</title>
    <g id="open-source-copy" stroke="none" stroke-width="1" fill="none" fill-rule="evenodd">
        <path d="M35,4 C36.6568542,4 38,5.34314575 38,7 L38,35.1568899 C38,36.8137442 36.6568542,38.1568899 35,38.1568899 L5,38.1568899 C3.34314575,38.1568899 2,36.8137442 2,35.1568899 L2,7 C2,5.34314575 3.34314575,4 5,4 L35,4 Z M35.9428571,12.1568899 L4.05714286,12.1568899 L4.05714286,35.1568899 C4.05714286,35.7091747 4.50485811,36.1568899 5.05714286,36.1568899 L34.9428571,36.1568899 C35.4951419,36.1568899 35.9428571,35.7091747 35.9428571,35.1568899 L35.9428571,12.1568899 Z M14.25,6.5 L12.75,6.5 C12.0596441,6.5 11.5,7.05964406 11.5,7.75 C11.5,8.44035594 12.0596441,9 12.75,9 L14.25,9 C14.9403559,9 15.5,8.44035594 15.5,7.75 C15.5,7.05964406 14.9403559,6.5 14.25,6.5 Z M7.75,6.5 L6.25,6.5 C5.55964406,6.5 5,7.05964406 5,7.75 C5,8.44035594 5.55964406,9 6.25,9 L7.75,9 C8.44035594,9 9,8.44035594 9,7.75 C9,7.05964406 8.44035594,6.5 7.75,6.5 Z" id="Combined-Shape" fill="#0078BD"></path>
        <path d="M14.7027643,29.2785241 C14.9740667,29.2785241 15.1974922,29.1830695 15.3730408,28.9921604 C15.5485893,28.8012513 15.6363636,28.5603422 15.6363636,28.2694332 C15.6363636,27.9785241 15.5485893,27.6967059 15.3730408,27.4239786 C15.0538615,27.1512513 14.6828156,26.837615 14.2599031,26.4830695 C13.8369906,26.1285241 13.4100883,25.7648877 12.9791964,25.3921604 C12.5483044,25.0194332 12.1214021,24.6557968 11.6984896,24.3012513 C11.2755771,23.9467059 10.9045312,23.6330695 10.585352,23.3603422 C10.8566543,23.1057968 11.199772,22.7967059 11.614705,22.4330695 C12.0296381,22.0694332 12.4605301,21.687615 12.907381,21.287615 C13.354232,20.887615 13.785124,20.5057968 14.200057,20.1421604 C14.61499,19.7785241 14.9581077,19.4694332 15.2294101,19.2148877 C15.4368766,18.9239786 15.5406099,18.6239786 15.5406099,18.3148877 C15.5406099,18.0239786 15.4528356,17.7785241 15.277287,17.5785241 C15.1017384,17.3785241 14.8783129,17.2785241 14.6070105,17.2785241 C14.4633799,17.2785241 14.2878313,17.3239786 14.0803648,17.4148877 C14.0165289,17.4694332 13.8409803,17.6285241 13.553719,17.8921604 C13.2664577,18.1557968 12.92334,18.4603422 12.5243659,18.8057968 C12.1253918,19.1512513 11.7064691,19.5239786 11.2675976,19.9239786 L10.9421844,20.218865 C10.6205115,20.5086377 10.3100598,20.7830695 10.0108293,21.0421604 C9.61185523,21.387615 9.27272727,21.687615 8.99344543,21.9421604 C8.71416358,22.1967059 8.53462525,22.3603422 8.45483044,22.4330695 C8.15161015,22.7057968 8,23.0239786 8,23.387615 C8,23.6967059 8.1276717,23.9967059 8.3830151,24.287615 C8.79794813,24.6148877 9.25277857,24.9921604 9.74750641,25.4194332 C10.2422343,25.8467059 10.7449416,26.2785241 11.2556284,26.7148877 C11.7663152,27.1512513 12.2690225,27.5785241 12.7637504,27.9967059 C13.2584782,28.4148877 13.7053292,28.787615 14.1043032,29.1148877 C14.3277287,29.2239786 14.5272157,29.2785241 14.7027643,29.2785241 Z M25.2972357,29.2785241 C25.0259333,29.2785241 24.8025078,29.1830695 24.6269592,28.9921604 C24.4514107,28.8012513 24.3636364,28.5603422 24.3636364,28.2694332 C24.3636364,27.9785241 24.4514107,27.6967059 24.6269592,27.4239786 C24.9461385,27.1512513 25.3171844,26.837615 25.7400969,26.4830695 C26.1630094,26.1285241 26.5899117,25.7648877 27.0208036,25.3921604 C27.4516956,25.0194332 27.8785979,24.6557968 28.3015104,24.3012513 C28.7244229,23.9467059 29.0954688,23.6330695 29.414648,23.3603422 C29.1433457,23.1057968 28.800228,22.7967059 28.385295,22.4330695 C27.9703619,22.0694332 27.5394699,21.687615 27.092619,21.287615 C26.645768,20.887615 26.214876,20.5057968 25.799943,20.1421604 C25.38501,19.7785241 25.0418923,19.4694332 24.7705899,19.2148877 C24.5631234,18.9239786 24.4593901,18.6239786 24.4593901,18.3148877 C24.4593901,18.0239786 24.5471644,17.7785241 24.722713,17.5785241 C24.8982616,17.3785241 25.1216871,17.2785241 25.3929895,17.2785241 C25.5366201,17.2785241 25.7121687,17.3239786 25.9196352,17.4148877 C25.9834711,17.4694332 26.1590197,17.6285241 26.446281,17.8921604 C26.7335423,18.1557968 27.07666,18.4603422 27.4756341,18.8057968 C27.8746082,19.1512513 28.2935309,19.5239786 28.7324024,19.9239786 L29.0578156,20.218865 C29.3794885,20.5086377 29.6899402,20.7830695 29.9891707,21.0421604 C30.3881448,21.387615 30.7272727,21.687615 31.0065546,21.9421604 C31.2858364,22.1967059 31.4653748,22.3603422 31.5451696,22.4330695 C31.8483899,22.7057968 32,23.0239786 32,23.387615 C32,23.6967059 31.8723283,23.9967059 31.6169849,24.287615 C31.2020519,24.6148877 30.7472214,24.9921604 30.2524936,25.4194332 C29.7577657,25.8467059 29.2550584,26.2785241 28.7443716,26.7148877 C28.2336848,27.1512513 27.7309775,27.5785241 27.2362496,27.9967059 C26.7415218,28.4148877 26.2946708,28.787615 25.8956968,29.1148877 C25.6722713,29.2239786 25.4727843,29.2785241 25.2972357,29.2785241 Z M21.3363185,17.1682065 C21.5695659,17.1312637 21.7852593,17.1847707 21.9833988,17.3287274 C22.1815383,17.4726842 22.3052365,17.7001608 22.3544935,18.0111574 L22.3785063,18.1627682 L22.3860669,18.248244 L22.3828886,18.3413981 C21.8927298,20.2786872 21.3997487,22.2093389 20.9039452,24.1333533 L20.6904595,24.9561232 L20.68734,24.9556049 L20.4933222,25.7051072 C20.060996,27.3727573 19.6281954,29.0457911 19.1949203,30.7242086 C19.097613,30.9149595 18.9767517,31.0576363 18.8323362,31.152239 C18.6879208,31.2468418 18.5457388,31.305226 18.4057904,31.3273916 C18.172543,31.3643344 17.9568495,31.3108274 17.7587101,31.1668706 C17.5605706,31.0229139 17.4368724,30.7954372 17.3876153,30.4844407 L17.3636026,30.3328299 L17.356042,30.2473541 L17.3592202,30.1542 C17.849379,28.2169109 18.3423602,26.2862592 18.8381637,24.3622448 L19.0507361,23.5399668 L19.0535787,23.5387374 L19.2487866,22.7904909 C19.6811128,21.1228408 20.1139135,19.449807 20.5471886,17.7713895 C20.6444958,17.5806386 20.7653572,17.4379618 20.9097726,17.343359 C21.0541881,17.2487563 21.19637,17.1903721 21.3363185,17.1682065 Z" id="code" fill="#0078BD" fill-rule="nonzero"></path>
    </g>
</svg>