<?xml version="1.0" encoding="UTF-8"?>
<svg width="464px" height="464px" viewBox="0 0 464 464" version="1.1" xmlns="http://www.w3.org/2000/svg" xmlns:xlink="http://www.w3.org/1999/xlink">
    <title>social-round-yt</title>
    <g id="Page-2" stroke="none" stroke-width="1" fill="none" fill-rule="evenodd">
        <g id="social-round-yt" fill-rule="nonzero">
            <path d="M463.587988,231.773328 C463.587988,359.799991 359.814658,463.573322 231.801328,463.586655 C103.773331,463.573322 0,359.799991 0,231.773328 C0,103.773331 103.773331,0 231.801328,0 C359.814658,0 463.587988,103.773331 463.587988,231.773328 L460.921322,231.773328 C460.921322,168.519996 435.281322,111.226664 393.814657,69.7733316 C352.347991,28.306666 295.067993,2.6666666 231.801328,2.6666666 C168.519996,2.6666666 111.254664,28.306666 69.7733316,69.7733316 C28.306666,111.226664 2.6666666,168.519996 2.6666666,231.773328 C2.6666666,295.066659 28.306666,352.333325 69.7733316,393.79999 C111.254664,435.266656 168.519996,460.906655 231.801328,460.919988 C295.067993,460.906655 352.347991,435.266656 393.814657,393.79999 C435.281322,352.333325 460.921322,295.066659 460.921322,231.773328 L463.587988,231.773328 L463.587988,231.773328" id="path144" fill="#8C8B8D" transform="translate(231.794, 231.7933) scale(-1, 1) rotate(-180) translate(-231.794, -231.7933)"></path>
            <path d="M377.534657,280.119993 C377.534657,309.213326 353.947991,332.799992 324.854659,332.799992 L135.986663,332.799992 C106.879997,332.799992 83.2933313,309.213326 83.2933313,280.119993 L83.2933313,178.986662 C83.2933313,149.879996 106.879997,126.279997 135.986663,126.279997 L324.854659,126.279997 C353.947991,126.279997 377.534657,149.879996 377.534657,178.986662 L377.534657,280.119993 L374.867991,280.119993 L374.867991,178.986662 C374.867991,165.173329 369.281324,152.65333 360.227991,143.599996 C351.161325,134.546663 338.667992,128.946663 324.854659,128.946663 L135.986663,128.946663 C122.174664,128.946663 109.666664,134.546663 100.614664,143.599996 C91.561331,152.65333 85.9599979,165.173329 85.9599979,178.986662 L85.9599979,280.119993 C85.9599979,293.933326 91.561331,306.426659 100.614664,315.479992 C109.666664,324.546659 122.174664,330.133325 135.986663,330.133325 L324.854659,330.133325 C338.667992,330.133325 351.161325,324.546659 360.227991,315.479992 C369.281324,306.426659 374.867991,293.933326 374.867991,280.119993 L377.534657,280.119993 L377.534657,280.119993" id="path146" fill="#8C8B8D" transform="translate(230.414, 229.54) scale(-1, 1) rotate(-180) translate(-230.414, -229.54)"></path>
            <path d="M208.921328,268.14666 C208.267995,268.453327 207.561328,268.613327 206.854661,268.613327 C205.133328,268.613327 203.466662,267.66666 202.653328,265.999993 C202.346662,265.38666 202.186662,264.693327 202.174662,263.999993 L202.174662,263.999993 L202.374662,195.773328 C202.374662,193.173329 204.466662,191.093329 207.054661,191.093329 C207.827995,191.093329 208.587995,191.279995 209.267995,191.639995 L209.254661,191.639995 L274.801326,225.946661 L274.187993,227.119994 L274.77466,225.919994 C276.427993,226.733328 277.387993,228.413328 277.387993,230.119994 C277.387993,230.813328 277.227993,231.533328 276.907993,232.199994 C276.45466,233.119994 275.69466,233.866661 274.77466,234.333327 L274.187993,233.119994 L274.787993,234.306661 L208.947995,268.119993 L207.734661,265.759993 L273.587993,231.946661 L273.601326,231.946661 C273.987993,231.733328 274.321326,231.426661 274.507993,231.026661 C274.65466,230.733328 274.721326,230.426661 274.721326,230.119994 C274.721326,229.386661 274.307993,228.666661 273.601326,228.306661 L273.57466,228.306661 L208.014661,193.999995 L208.001328,193.999995 C207.707995,193.839995 207.387995,193.759995 207.054661,193.759995 C205.947995,193.759995 205.041328,194.666662 205.041328,195.773328 L205.041328,195.786662 L204.841328,263.999993 L203.507995,263.973327 L204.841328,263.973327 C204.841328,264.253327 204.921328,264.559993 205.041328,264.813327 C205.401328,265.533327 206.107995,265.94666 206.854661,265.94666 C207.161328,265.94666 207.454661,265.893327 207.747995,265.733327 L208.921328,268.14666 L208.921328,268.14666" id="path148" fill="#8C8B8D" transform="translate(239.7813, 229.8533) scale(-1, 1) rotate(-180) translate(-239.7813, -229.8533)"></path>
            <path d="M231.801328,1.3333333 C359.081324,1.3333333 462.254655,104.519997 462.254655,231.813328 C462.254655,359.093324 359.081324,462.253322 231.801328,462.253322 C104.519997,462.253322 1.3333333,359.093324 1.3333333,231.813328 C1.3333333,104.519997 104.519997,1.3333333 231.801328,1.3333333 Z M324.854659,127.61333 L135.986663,127.61333 C107.626665,127.61333 84.6266646,150.599996 84.6266646,178.959996 L84.6266646,280.093326 C84.6266646,308.466658 107.626665,331.466658 135.986663,331.466658 L324.854659,331.466658 C353.214658,331.466658 376.201324,308.466658 376.201324,280.093326 L376.201324,178.959996 C376.201324,150.599996 353.214658,127.61333 324.854659,127.61333 Z M206.907995,192.426304 C207.401328,192.426304 207.894661,192.546662 208.334661,192.759995 L274.187993,226.586661 C275.841326,227.399994 276.53466,229.399994 275.707993,231.066661 C275.387993,231.733328 274.841326,232.253328 274.187993,232.586661 L208.627995,266.893327 C207.001328,267.759993 204.973328,267.14666 204.094662,265.50666 C203.841328,265.039993 203.707995,264.479993 203.707995,263.933327 L203.507995,195.733328 C203.534662,193.866662 205.053328,192.399995 206.907995,192.426304 Z" id="Combined-Shape" fill="#686868"></path>
            <path d="M376.201324,178.986662 C376.201324,150.61333 353.214658,127.61333 324.854659,127.61333 L135.986663,127.61333 C107.626665,127.61333 84.6266646,150.61333 84.6266646,178.986662 L84.6266646,178.986662 L84.6266646,280.119993 C84.6266646,308.479992 107.626665,331.466658 135.986663,331.466658 L324.854659,331.466658 C353.214658,331.466658 376.201324,308.479992 376.201324,280.119993 L376.201324,178.986662 Z M208.334661,266.319993 C206.681328,267.133327 204.666662,266.453327 203.853328,264.78666 C203.626662,264.34666 203.519995,263.853327 203.507995,263.34666 L203.707995,195.146662 C203.707995,193.293329 205.201328,191.799995 207.054661,191.799995 C207.601328,191.799995 208.147995,191.933329 208.627995,192.186662 L274.187993,226.493328 C275.841326,227.319994 276.53466,229.319994 275.707993,230.986661 C275.387993,231.653328 274.841326,232.186661 274.187993,232.493328 L208.334661,266.319993 L208.334661,266.319993" id="path152" fill="#FFFFFF" transform="translate(230.414, 229.54) scale(-1, 1) rotate(-180) translate(-230.414, -229.54)"></path>
        </g>
    </g>
</svg>